<svg width="33" height="16" viewBox="0 0 33 16" fill="none" xmlns="http://www.w3.org/2000/svg">
<path fill-rule="evenodd" clip-rule="evenodd" d="M3.5283 10.9002L3.98049 9.37575H7.63208L8.10133 10.9002H10.0039L6.68506 0.236328H4.94458L1.61719 10.9002H3.5283ZM5.81482 3.27041L7.1799 7.85128H4.43267L5.81482 3.27041ZM17.6095 10.9002C18.4541 10.9002 19.1793 10.64 19.768 10.1268C20.3652 9.60628 20.6638 8.97418 20.6638 8.23797V7.48689C20.6638 6.72837 20.3567 6.08883 19.7424 5.56828C20.3567 5.04773 20.6638 4.40819 20.6638 3.64967V2.89115C20.6638 2.15494 20.3652 1.52284 19.768 1.00972C19.1793 0.496605 18.4541 0.236328 17.6095 0.236328H12.2771V10.9002H17.6095ZM14.0261 6.33424H17.6095C17.9678 6.33424 18.2749 6.44578 18.5309 6.67631C18.7954 6.89941 18.9234 7.16712 18.9234 7.48689V8.23797C18.9234 8.5503 18.7954 8.81802 18.5309 9.04111C18.2749 9.26421 17.9678 9.37575 17.6095 9.37575H14.0261V6.33424ZM14.0261 1.74593H17.6095C17.9678 1.74593 18.2749 1.85748 18.5309 2.08801C18.7954 2.3111 18.9234 2.57882 18.9234 2.89115V3.64967C18.9234 3.96944 18.7954 4.23715 18.5309 4.46768C18.2749 4.69821 17.9678 4.80976 17.6095 4.80976H14.0261V1.74593ZM23.8329 10.1268C23.2357 9.60628 22.937 8.97418 22.937 8.23797V2.89115C22.937 2.15494 23.2357 1.52284 23.8329 1.00972C24.4386 0.496605 25.1638 0.236328 26.017 0.236328H28.2694C29.114 0.236328 29.8392 0.496605 30.4279 1.01716C31.0252 1.53771 31.3238 2.16981 31.3238 2.90602H29.5833C29.5833 2.58625 29.4553 2.31854 29.1908 2.09545C28.9349 1.87235 28.6277 1.76081 28.2694 1.76081H26.017C25.6501 1.76081 25.3345 1.87235 25.07 2.09545C24.814 2.3111 24.6861 2.57882 24.6861 2.89115V8.23797C24.6861 8.5503 24.814 8.81802 25.0785 9.04111C25.343 9.26421 25.6501 9.37575 26.017 9.37575H28.2694C28.6277 9.37575 28.9349 9.26421 29.1908 9.04111C29.4553 8.81058 29.5833 8.54287 29.5833 8.2231H31.3238C31.3238 8.95931 31.0252 9.59141 30.4279 10.1194C29.8392 10.64 29.114 10.9002 28.2694 10.9002H26.017C25.1638 10.9002 24.4386 10.64 23.8329 10.1268ZM32.0855 13.1855H0.474609V15.0898H32.0855V13.1855Z" fill="#E3E3E3"/>
</svg>
